<svg width="32" height="32" xmlns="http://www.w3.org/2000/svg">
	<g>
		<title>
			background
		</title>
		<rect fill="none" id="canvas_background" height="402" width="582" y="-1" x="-1" />
	</g>
	<g>
		<title>
			Layer 1
		</title>
		<path stroke="#0000" fill="currentColor" id="XMLID_328_" d="m29.895,12.52c-0.235,-0.704 -0.829,-1.209 -1.549,-1.319l-7.309,-1.095l-3.29,-6.984c-0.327,-0.692 -0.996,-1.122 -1.747,-1.122s-1.42,0.43 -1.747,1.122l-3.242,6.959l-7.357,1.12c-0.72,0.11 -1.313,0.615 -1.549,1.319c-0.241,0.723 -0.063,1.507 0.465,2.046l5.321,5.446l-1.257,7.676c-0.125,0.767 0.185,1.518 0.811,1.959c0.602,0.427 1.376,0.469 2.02,0.114l6.489,-3.624l6.581,3.624c0.646,0.355 1.418,0.311 2.02,-0.114c0.626,-0.441 0.937,-1.192 0.811,-1.959l-1.259,-7.686l5.323,-5.436c0.528,-0.539 0.706,-1.323 0.465,-2.046z" />
	</g>
</svg>
